<?xml version="1.0" encoding="UTF-8" standalone="no"?>
<!DOCTYPE svg PUBLIC "-//W3C//DTD SVG 1.1//EN" "http://www.w3.org/Graphics/SVG/1.1/DTD/svg11.dtd">
<svg width="100%" height="100%" viewBox="0 0 1000 256" version="1.1" xmlns="http://www.w3.org/2000/svg" xmlns:xlink="http://www.w3.org/1999/xlink" xml:space="preserve" xmlns:serif="http://www.serif.com/" style="fill-rule:evenodd;clip-rule:evenodd;stroke-linejoin:round;stroke-miterlimit:2;">
    <g transform="matrix(0.568152,0,0,0.566847,-42.61,-9.44473)">
        <path d="M374,52C376.889,52.754 380.163,53.652 382,56C385,59.833 390.167,70.667 392,75C392.918,77.171 393.842,79.799 393,82C387.833,95.5 375.167,135.5 361,156C347.321,175.794 320.167,191.333 308,205C299.447,214.607 287.667,226.667 288,238C288.333,249.333 301.167,262.833 310,273C318.833,283.167 331.703,289.23 341,299C350.833,309.333 361.986,321.512 369,335C377.667,351.667 389,387.167 393,399C393.747,401.21 393.785,403.803 393,406C391.333,410.667 386.5,422.5 383,427C380.436,430.297 374.766,432.633 372,433L140.575,433C137.809,432.633 132.139,430.297 129.575,427C126.075,422.5 121.241,410.667 119.575,406C118.79,403.803 118.827,401.21 119.575,399C123.575,387.167 134.908,351.667 143.575,335C150.588,321.512 161.741,309.333 171.575,299C180.872,289.23 193.741,283.167 202.575,273C211.408,262.833 224.241,249.333 224.575,238C224.908,226.667 213.127,214.607 204.575,205C192.408,191.333 165.253,175.794 151.575,156C137.408,135.5 124.741,95.5 119.575,82C118.732,79.799 119.656,77.171 120.575,75C122.408,70.667 127.575,59.833 130.575,56C132.412,53.652 135.685,52.754 138.575,52L374,52Z" style="fill:rgb(27,27,27);"/>
        <g>
            <path d="M119.274,80.708C119.082,78.819 119.83,76.759 120.575,75C122.408,70.667 127.575,59.833 130.575,56C132.412,53.652 135.685,52.754 138.575,52L176,52L178,114L119.274,80.708Z" style="fill:url(#_Linear1);"/>
            <path d="M176,52L339,52L310,86L239,115L178,114L176,52Z" style="fill:url(#_Radial2);"/>
            <path d="M339,52L374,52C376.889,52.754 380.163,53.652 382,56C385,59.833 390.167,70.667 392,75C392.039,75.093 392.079,75.187 392.118,75.281L341,103L310,86L339,52Z" style="fill:url(#_Linear3);"/>
            <path d="M392.118,75.281C392.994,77.395 393.806,79.893 393,82C387.833,95.5 375.167,135.5 361,156C347.321,175.794 320.167,191.333 308,205C299.447,214.607 287.667,226.667 288,238C288.325,249.062 300.56,262.188 309.359,272.264C302.686,285.049 295.158,296.511 287,307C274.653,292.18 265.16,269.622 255.528,242.276C253.9,237.656 254.236,232.571 256.459,228.206L281,180C305.865,154.455 326.683,128.809 341,103L392.118,75.281Z" style="fill:url(#_Linear4);"/>
            <path d="M119.414,399.521C119.463,399.345 119.517,399.171 119.575,399C123.575,387.167 134.908,351.667 143.575,335C150.588,321.512 161.741,309.333 171.575,299C180.872,289.23 193.741,283.167 202.575,273C211.408,262.833 224.241,249.333 224.575,238C224.908,226.667 213.127,214.607 204.575,205C192.408,191.333 165.253,175.794 151.575,156C137.408,135.5 124.741,95.5 119.575,82C119.415,81.583 119.319,81.15 119.274,80.708L178,114C187.901,132.675 202.189,150.984 220,169L241,197C245.404,208.207 250.051,219.414 255.444,230.621C254.391,233.752 254.224,237.12 254.968,240.348C218.523,294.321 187.698,344.174 176,380C154.12,386.333 132.426,392.676 119.414,399.521Z" style="fill:url(#_Linear5);"/>
            <path d="M134.987,431.092C132.907,430.051 130.854,428.645 129.575,427C126.075,422.5 121.241,410.667 119.575,406C118.851,403.973 118.826,401.61 119.414,399.521C132.426,392.676 154.12,386.333 176,380L134.987,431.092Z" style="fill:url(#_Linear6);"/>
            <path d="M239,115C233.621,133.597 227.488,151.722 220,169C202.189,150.984 187.901,132.675 178,114L239,115Z" style="fill:url(#_Radial7);"/>
            <path d="M220,169C227.488,151.722 233.621,133.597 239,115L310,86L341,103C326.683,128.809 305.865,154.455 281,180C267.108,185.48 253.903,191.19 241,197L220,169Z" style="fill:url(#_Radial8);"/>
            <path d="M241,197C253.903,191.19 267.108,185.48 281,180L256.459,228.206C256.06,228.99 255.721,229.797 255.444,230.621C250.051,219.414 245.404,208.207 241,197Z" style="fill:url(#_Radial9);"/>
            <path d="M287,307L239,366L176,380C187.698,344.174 218.523,294.321 254.968,240.348C255.118,240.997 255.304,241.641 255.528,242.276C265.16,269.622 274.653,292.18 287,307Z" style="fill:url(#_Linear10);"/>
            <path d="M171,433L140.575,433C139.189,432.816 137.075,432.138 134.987,431.092L176,380L239,366C209.721,387.599 187.404,409.971 171,433Z" style="fill:url(#_Linear11);"/>
            <path d="M287,307C316.483,341.467 335.773,373.121 345,402L239,366L287,307Z" style="fill:url(#_Linear12);"/>
            <path d="M309.359,272.264C309.575,272.511 309.789,272.757 310,273C318.833,283.167 331.703,289.23 341,299C346.908,305.208 353.291,312.082 358.968,319.506C348.235,335.979 340.081,354.459 333.372,374.062C322.697,353.027 307.254,330.677 287,307C295.158,296.511 302.686,285.049 309.359,272.264Z" style="fill:url(#_Linear13);"/>
            <path d="M358.968,319.506C362.74,324.439 366.2,329.615 369,335C377.667,351.667 389,387.167 393,399C393.747,401.21 393.785,403.803 393,406C391.333,410.667 386.5,422.5 383,427C381.211,429.3 377.911,431.132 375.14,432.155C366.975,421.894 356.386,411.903 345,402C342.112,392.96 338.237,383.647 333.372,374.062C340.081,354.459 348.235,335.979 358.968,319.506Z" style="fill:url(#_Linear14);"/>
            <path d="M375.14,432.155C373.938,432.598 372.836,432.889 372,433L171,433C187.404,409.971 209.721,387.599 239,366L345,402C356.386,411.903 366.975,421.894 375.14,432.155Z" style="fill:url(#_Linear15);"/>
        </g>
        <g>
            <path d="M177.628,114.365C168.936,109.486 119.41,80.866 119.247,80.756C119.185,80.715 119.234,80.629 119.301,80.66C119.798,80.893 155.284,100.684 158.411,102.428C167.919,107.73 169.475,108.618 177.475,113.13C176.838,91.04 177.045,90.691 176.288,64.044C175.947,52.041 175.877,51.949 175.998,51.945C176.119,51.941 176.055,52.037 176.489,64.037C177.395,89.143 178.371,108.177 178.491,113.509C190.793,113.697 238.939,114.848 239.002,114.871C239.028,114.88 239.322,115.125 238.998,115.129C238.786,115.131 217.148,114.953 205.588,114.835L178.842,114.509C184.896,125.67 195.926,143.995 219.896,168.708C219.924,168.737 220.228,168.956 220.091,169.092C220.047,169.134 219.955,169.129 219.908,169.091C219.415,168.685 215.343,164.459 214.951,164.052C211.393,160.36 190.64,139.124 177.628,114.365Z" style="fill:rgb(227,228,225);fill-opacity:0.5;"/>
            <g transform="matrix(0.440023,0,0,0.441036,30.9953,16.6619)">
                <path d="M510.277,485.48C510.344,485.608 510.289,485.613 510.099,486.274C508.08,493.307 507.719,499.812 509.404,506.485C509.416,506.531 514.712,524.03 522.137,544.194C543.499,602.205 565.281,636.666 581.945,659.091C582.211,659.448 581.682,659.306 581.671,659.297C581.448,659.091 578.153,654.515 577.851,654.096C546.103,610.003 525.424,559.116 509.689,508.158C508.678,504.883 506.646,497.373 510.065,485.973C510.216,485.469 510.257,485.442 510.277,485.48Z" style="fill:rgb(227,228,225);fill-opacity:0.4;"/>
            </g>
            <g transform="matrix(0.440023,0,0,0.441036,30.9953,16.6619)">
                <path d="M741.099,175.856C747.46,172.419 820.577,132.906 820.608,132.891C820.679,132.857 820.73,132.952 820.663,132.992C820.501,133.09 716.064,189.737 706.968,194.671C706.188,195.094 705.305,195.368 704.626,195.941C704.286,196.227 687.445,226.987 657.782,267.196C636.504,296.038 607.921,330.837 569.586,369.232C569.158,369.661 568.59,369.984 568.302,370.516C568.006,371.062 568.027,371.072 532.7,441.308L510.413,485.612C510.293,485.808 510.021,485.671 510.107,485.458C510.113,485.442 567.915,370.309 567.949,370.262C568.544,369.437 600.061,339.254 635.282,295.615C672.009,250.111 694.093,213.31 704.367,195.737C704.379,195.717 704.394,195.701 704.412,195.687C704.44,195.667 738.164,177.442 741.099,175.856Z" style="fill:rgb(227,228,225);fill-opacity:0.4;"/>
            </g>
            <path d="M219.883,168.843C220.01,168.992 220.244,169.021 220.372,169.169C221.275,170.226 232.134,184.403 241.397,196.702C241.421,196.735 249.443,215.239 255.585,230.446C255.656,230.623 255.554,230.615 255.522,230.8C255.466,230.694 255.277,230.708 255.221,230.602C254.925,230.039 248.484,215.729 240.598,197.322C240.579,197.278 221.47,171.56 220.058,169.404C219.951,169.24 219.99,169.007 219.883,168.843Z" style="fill:rgb(227,228,225);fill-opacity:0.2;"/>
            <path d="M287.19,306.837C316.699,341.335 336.003,373.02 345.238,401.924C345.267,402.014 345.243,402.112 345.175,402.178C345.108,402.245 345.009,402.267 344.92,402.237L238.92,366.237C238.842,366.21 238.782,366.148 238.76,366.069C238.737,365.99 238.754,365.906 238.806,365.842L286.806,306.842C286.853,306.785 286.923,306.751 286.997,306.75C287.071,306.749 287.142,306.781 287.19,306.837ZM287.005,307.39L239.421,365.879L344.61,401.604C335.353,372.942 316.191,341.55 287.005,307.39Z" style="fill:rgb(227,228,225);fill-opacity:0.15;"/>
            <path d="M174.78,380.815C155.724,386.314 134.388,392.322 120.354,399.062C119.512,399.466 119.341,399.562 119.414,399.521C131.608,392.697 153.892,385.962 175.622,379.646C175.624,379.646 176.104,379.417 176.348,379.723C176.472,379.879 176.476,380.115 176.346,380.278C168.966,389.515 138.304,427.034 134.987,431.092C152.558,408.805 159.429,400.047 174.78,380.815Z" style="fill:rgb(227,228,225);fill-opacity:0.15;"/>
            <path d="M255.077,240.185C255.041,240.271 255.165,240.373 255.129,240.458C254.958,240.862 234.556,271.035 217.251,299.41C199.818,327.992 184.327,356.164 176.262,379.837C176.237,379.912 176.239,380.003 176.186,380.061C176.123,380.128 176.002,380.118 175.939,380.186C175.951,380.094 175.802,380.03 175.814,379.938C175.854,379.642 177.114,375.998 177.232,375.657C189.606,339.885 219.701,292.573 242.641,258.147C245.532,253.807 253.414,242.282 254.356,240.905C254.606,240.539 254.545,240.498 254.805,240.239C254.87,240.174 255.012,240.251 255.077,240.185Z" style="fill:rgb(227,228,225);fill-opacity:0.5;"/>
            <path d="M375.177,432.198C374.839,432.173 374.942,432.001 373.124,429.972C356.075,410.934 344.936,402.236 344.891,402.132C344.827,401.985 344.82,401.723 345.11,401.868C345.354,401.991 348.477,404.689 348.766,404.939C359.732,414.413 368.401,424.138 375.115,432.036C375.138,432.063 375.171,432.084 375.183,432.117C375.193,432.142 375.205,432.2 375.177,432.198Z" style="fill:rgb(227,228,225);fill-opacity:0.3;"/>
        </g>
    </g>
    <g transform="matrix(0.557264,0,0,0.557264,145.26,-251.81)">
        <path d="M1299.42,534.201L1299.42,568.81L1248.57,582.436L1248.57,544.081L1262.64,530.011L1295.23,530.011L1299.42,534.201ZM678.324,621.777C681.628,618.795 685.072,616.006 688.654,613.409C695.597,608.375 703.031,604.412 710.957,601.52C718.883,598.627 727.011,597.18 735.343,597.18C757.906,597.18 774.105,604.065 783.94,617.834C793.775,631.604 798.693,654.341 798.693,686.045C798.693,699.236 797.478,711.356 795.048,722.406C792.618,733.457 788.366,743.089 782.291,751.305C776.217,759.52 767.712,765.884 756.778,770.397C745.843,774.909 731.756,777.166 714.515,777.166C708.498,777.166 701.556,776.905 693.687,776.384C685.819,775.864 677.777,775.054 669.562,773.955C661.347,772.855 653.536,771.467 646.131,769.789C638.726,768.111 632.362,766.115 627.039,763.801L627.039,537.065L644.261,530.011L668.539,530.011L678.301,539.773L678.587,585.725C678.654,590.21 678.566,594.626 678.324,598.975L678.324,621.777ZM678.089,651.478L678.202,736.873C679.591,737.184 681.021,737.482 682.493,737.767C687.873,738.808 693.311,739.502 698.807,739.849C704.304,740.197 709.192,740.312 713.474,740.197C721.457,739.849 727.793,738.114 732.479,734.99C737.165,731.866 740.578,726.427 742.719,718.675C744.86,710.922 745.93,700.103 745.93,686.218C745.93,673.49 745.062,663.597 743.326,656.539C741.591,649.481 738.467,644.505 733.954,641.613C729.441,638.72 723.077,637.274 714.862,637.274C707.225,637.274 700.283,638.893 694.034,642.133C689.174,644.653 683.859,647.768 678.089,651.478ZM495.251,601.693L519.256,601.693L524.176,627.624C535.348,618.077 546.696,610.706 558.221,605.511C570.544,599.957 582.491,597.18 594.062,597.18L602.914,597.18L598.054,644.39L583.995,644.39C575.896,644.39 567.42,645.547 558.568,647.861C550.928,649.858 541.584,652.761 530.538,656.569L530.538,773L479.337,773L479.337,608.211L495.251,601.693ZM1054.05,601.693L1079.69,601.693L1084.09,627.67C1095.78,618.02 1107.68,610.605 1119.79,605.425C1132.63,599.929 1145.24,597.18 1157.62,597.18C1190.02,597.18 1206.22,613.033 1206.22,644.737L1206.22,773L1155.02,773L1155.02,660.531C1155.02,652.894 1153.63,647.63 1150.85,644.737C1148.08,641.844 1143.33,640.398 1136.62,640.398C1129.21,640.398 1121.55,641.844 1113.62,644.737C1106.96,647.17 1099,650.666 1089.76,655.227L1089.76,773L1038.56,773L1038.56,608.039L1054.05,601.693ZM184.453,597.18C190.585,597.18 197.354,597.47 204.76,598.048C212.165,598.627 219.657,599.668 227.236,601.172C234.815,602.677 241.729,604.817 247.977,607.594L242.423,639.703C233.051,639.356 224.17,639.096 215.781,638.922C207.392,638.749 199.842,638.662 193.131,638.662C182.717,638.662 174.473,640.051 168.398,642.828C162.324,645.605 157.984,650.493 155.381,657.494C152.778,664.494 151.476,674.358 151.476,687.086C151.476,699.814 152.778,709.736 155.381,716.852C157.984,723.968 162.324,728.915 168.398,731.692C174.473,734.469 182.717,735.857 193.131,735.857C196.834,735.857 201.549,735.771 207.276,735.597C213.004,735.424 219.252,735.134 226.021,734.729C232.79,734.324 239.415,733.717 245.894,732.907L250.754,765.537C241.382,769.702 230.823,772.682 219.079,774.475C207.334,776.269 195.619,777.166 183.932,777.166C162.873,777.166 146.009,774.244 133.339,768.401C120.668,762.557 111.556,753.04 106.002,739.849C100.448,726.659 97.671,709.071 97.671,687.086C97.671,664.986 100.506,647.369 106.176,634.236C111.846,621.103 121.044,611.644 133.772,605.859C146.5,600.073 163.394,597.18 184.453,597.18ZM392.725,745.694C388.843,750.301 384.1,754.861 378.497,759.375C372.248,764.409 364.959,768.603 356.628,771.959C348.297,775.314 338.808,776.992 328.163,776.992C317.865,776.992 308.522,775.17 300.133,771.525C291.744,767.88 285.12,762.47 280.26,755.297C275.4,748.123 272.97,739.271 272.97,728.741L272.97,710.864C272.97,697.326 277.598,686.739 286.855,679.102C296.112,671.466 308.84,667.647 325.039,667.647L387.348,667.647L387.348,659.49C387.233,651.274 385.266,645.344 381.447,641.699C377.629,638.055 370.455,636.232 359.925,636.232C351.016,636.232 339.966,636.521 326.775,637.1C313.584,637.679 300.046,638.431 286.161,639.356L281.475,605.338C289.806,603.834 299.352,602.474 310.113,601.259C320.874,600.044 331.692,599.061 342.569,598.309C353.446,597.557 363.165,597.18 371.728,597.18C386.191,597.18 398.398,599.09 408.349,602.908C418.3,606.726 425.85,613.177 430.999,622.26C436.148,631.343 438.723,643.811 438.723,659.663L438.723,773L398.109,773L392.725,745.694ZM387.348,696.353L341.007,696.459C334.759,696.574 330.275,698.136 327.556,701.145C324.837,704.153 323.477,708.261 323.477,713.468L323.477,721.625C323.477,727.526 325.126,732.01 328.424,735.076C331.721,738.143 336.899,739.676 343.957,739.676C349.974,739.676 356.541,738.403 363.657,735.857C370.773,733.312 377.802,729.725 384.745,725.097C385.625,724.51 386.493,723.911 387.348,723.301L387.348,696.353ZM915.154,597.18C936.676,597.18 953.916,600.102 966.876,605.945C979.835,611.789 989.15,621.335 994.82,634.583C1000.49,647.832 1003.32,665.507 1003.32,687.607C1003.32,709.476 1000.49,726.977 994.82,740.11C989.15,753.243 979.835,762.731 966.876,768.574C953.916,774.417 936.676,777.339 915.154,777.339C893.748,777.339 876.565,774.417 863.606,768.574C850.646,762.731 841.274,753.243 835.489,740.11C829.703,726.977 826.81,709.476 826.81,687.607C826.81,665.507 829.703,647.832 835.489,634.583C841.274,621.335 850.646,611.789 863.606,605.945C876.565,600.102 893.748,597.18 915.154,597.18ZM915.154,634.323C906.244,634.323 899.273,635.827 894.24,638.836C889.206,641.844 885.648,647.167 883.566,654.803C881.483,662.44 880.441,673.375 880.441,687.607C880.441,701.608 881.483,712.398 883.566,719.976C885.648,727.555 889.206,732.82 894.24,735.771C899.273,738.721 906.244,740.197 915.154,740.197C924.064,740.197 931.064,738.721 936.155,735.771C941.246,732.82 944.804,727.555 946.829,719.976C948.854,712.398 949.867,701.608 949.867,687.607C949.867,673.375 948.854,662.44 946.829,654.803C944.804,647.167 941.246,641.844 936.155,638.836C931.064,635.827 924.064,634.323 915.154,634.323ZM1299.42,596.122L1299.42,773L1248.57,773L1248.57,609.748L1299.42,596.122ZM1422.65,597.18C1428.79,597.18 1435.55,597.47 1442.96,598.048C1450.37,598.627 1457.86,599.668 1465.44,601.172C1473.02,602.677 1479.93,604.817 1486.18,607.594L1480.62,639.703C1471.25,639.356 1462.37,639.096 1453.98,638.922C1445.59,638.749 1438.04,638.662 1431.33,638.662C1420.92,638.662 1412.67,640.051 1406.6,642.828C1400.52,645.605 1396.18,650.493 1393.58,657.494C1390.98,664.494 1389.68,674.358 1389.68,687.086C1389.68,699.814 1390.98,709.736 1393.58,716.852C1396.18,723.968 1400.52,728.915 1406.6,731.692C1412.67,734.469 1420.92,735.857 1431.33,735.857C1435.03,735.857 1439.75,735.771 1445.48,735.597C1451.2,735.424 1457.45,735.134 1464.22,734.729C1470.99,734.324 1477.62,733.717 1484.09,732.907L1488.95,765.537C1479.58,769.702 1469.02,772.682 1457.28,774.475C1445.53,776.269 1433.82,777.166 1422.13,777.166C1401.07,777.166 1384.21,774.244 1371.54,768.401C1358.87,762.557 1349.76,753.04 1344.2,739.849C1338.65,726.659 1335.87,709.071 1335.87,687.086C1335.87,664.986 1338.71,647.369 1344.38,634.236C1350.05,621.103 1359.24,611.644 1371.97,605.859C1384.7,600.073 1401.59,597.18 1422.65,597.18Z" style="fill:rgb(37,37,37);"/>
    </g>
    <defs>
        <linearGradient id="_Linear1" x1="0" y1="0" x2="1" y2="-0.00203232" gradientUnits="userSpaceOnUse" gradientTransform="matrix(-27.3783,45.3456,-45.3456,-27.3783,176,52)"><stop offset="0" style="stop-color:rgb(73,72,72);stop-opacity:1"/><stop offset="1" style="stop-color:rgb(121,120,119);stop-opacity:1"/></linearGradient>
        <radialGradient id="_Radial2" cx="0" cy="0" r="1" gradientUnits="userSpaceOnUse" gradientTransform="matrix(160.413,0,0,62,178,114)"><stop offset="0" style="stop-color:rgb(180,178,178);stop-opacity:1"/><stop offset="0.56" style="stop-color:rgb(105,105,104);stop-opacity:1"/><stop offset="1" style="stop-color:rgb(73,73,72);stop-opacity:1"/></radialGradient>
        <linearGradient id="_Linear3" x1="0" y1="0" x2="1" y2="-0.00228843" gradientUnits="userSpaceOnUse" gradientTransform="matrix(-64,58,-58,-64,374,52)"><stop offset="0" style="stop-color:rgb(51,50,49);stop-opacity:1"/><stop offset="1" style="stop-color:rgb(50,50,50);stop-opacity:1"/></linearGradient>
        <linearGradient id="_Linear4" x1="0" y1="0" x2="1" y2="0.00223683" gradientUnits="userSpaceOnUse" gradientTransform="matrix(29,22.8683,-22.8683,29,281,180)"><stop offset="0" style="stop-color:rgb(19,21,22);stop-opacity:1"/><stop offset="1" style="stop-color:rgb(37,37,36);stop-opacity:1"/></linearGradient>
        <linearGradient id="_Linear5" x1="0" y1="0" x2="1" y2="0" gradientUnits="userSpaceOnUse" gradientTransform="matrix(1.95216e-14,-318.813,318.813,1.95216e-14,119,399.521)"><stop offset="0" style="stop-color:rgb(59,59,58);stop-opacity:1"/><stop offset="0.13" style="stop-color:rgb(64,63,62);stop-opacity:1"/><stop offset="0.25" style="stop-color:rgb(77,76,76);stop-opacity:1"/><stop offset="0.61" style="stop-color:rgb(35,36,35);stop-opacity:1"/><stop offset="1" style="stop-color:rgb(76,77,75);stop-opacity:1"/></linearGradient>
        <linearGradient id="_Linear6" x1="0" y1="0" x2="1" y2="-0.00218309" gradientUnits="userSpaceOnUse" gradientTransform="matrix(51.7617,-37.3334,37.3334,51.7617,124.238,417.333)"><stop offset="0" style="stop-color:rgb(49,48,47);stop-opacity:1"/><stop offset="1" style="stop-color:rgb(61,60,61);stop-opacity:1"/></linearGradient>
        <radialGradient id="_Radial7" cx="0" cy="0" r="1" gradientUnits="userSpaceOnUse" gradientTransform="matrix(20.0735,58.2705,-73.2109,25.2203,178,114)"><stop offset="0" style="stop-color:rgb(178,176,176);stop-opacity:1"/><stop offset="1" style="stop-color:rgb(93,91,92);stop-opacity:1"/></radialGradient>
        <radialGradient id="_Radial8" cx="0" cy="0" r="1" gradientUnits="userSpaceOnUse" gradientTransform="matrix(-25.9208,-30.634,97.4998,-84.2958,323.921,93.634)"><stop offset="0" style="stop-color:rgb(43,41,41);stop-opacity:1"/><stop offset="0.23" style="stop-color:rgb(47,47,48);stop-opacity:1"/><stop offset="1" style="stop-color:rgb(69,68,66);stop-opacity:1"/></radialGradient>
        <radialGradient id="_Radial9" cx="0" cy="0" r="1" gradientUnits="userSpaceOnUse" gradientTransform="matrix(24.9957,49.2415,-26,21,261,201)"><stop offset="0" style="stop-color:rgb(44,42,42);stop-opacity:1"/><stop offset="1" style="stop-color:rgb(39,39,38);stop-opacity:1"/></radialGradient>
        <linearGradient id="_Linear10" x1="0" y1="0" x2="1" y2="-0.00228829" gradientUnits="userSpaceOnUse" gradientTransform="matrix(-111,122,-122,-111,287,258)"><stop offset="0" style="stop-color:rgb(44,42,42);stop-opacity:1"/><stop offset="0.66" style="stop-color:rgb(106,105,105);stop-opacity:1"/><stop offset="1" style="stop-color:rgb(102,102,102);stop-opacity:1"/></linearGradient>
        <linearGradient id="_Linear11" x1="0" y1="0" x2="1" y2="-0.0022192" gradientUnits="userSpaceOnUse" gradientTransform="matrix(90.9254,-69.4317,69.4317,90.9254,140.575,433)"><stop offset="0" style="stop-color:rgb(37,37,38);stop-opacity:1"/><stop offset="1" style="stop-color:rgb(47,46,47);stop-opacity:1"/></linearGradient>
        <linearGradient id="_Linear12" x1="0" y1="0" x2="1" y2="0.00220887" gradientUnits="userSpaceOnUse" gradientTransform="matrix(84,63.0417,-63.0417,84,261,338.958)"><stop offset="0" style="stop-color:rgb(46,46,47);stop-opacity:1"/><stop offset="1" style="stop-color:rgb(46,46,46);stop-opacity:1"/></linearGradient>
        <linearGradient id="_Linear13" x1="0" y1="0" x2="1" y2="0.000777255" gradientUnits="userSpaceOnUse" gradientTransform="matrix(71.9679,12.5058,-12.5058,71.9679,287,307)"><stop offset="0" style="stop-color:rgb(29,28,28);stop-opacity:1"/><stop offset="1" style="stop-color:rgb(45,45,45);stop-opacity:1"/></linearGradient>
        <linearGradient id="_Linear14" x1="0" y1="0" x2="1" y2="-0.00149856" gradientUnits="userSpaceOnUse" gradientTransform="matrix(43.6189,-16.1325,16.1325,43.6189,345,402)"><stop offset="0" style="stop-color:rgb(27,27,27);stop-opacity:1"/><stop offset="1" style="stop-color:rgb(43,42,41);stop-opacity:1"/></linearGradient>
        <linearGradient id="_Linear15" x1="0" y1="0" x2="1" y2="0" gradientUnits="userSpaceOnUse" gradientTransform="matrix(204.14,-5.68434e-14,5.68434e-14,204.14,171,433)"><stop offset="0" style="stop-color:rgb(30,29,30);stop-opacity:1"/><stop offset="1" style="stop-color:rgb(35,36,35);stop-opacity:1"/></linearGradient>
    </defs>
</svg>
