<?xml version="1.0" encoding="UTF-8" standalone="no"?>
<!DOCTYPE svg PUBLIC "-//W3C//DTD SVG 1.1//EN" "http://www.w3.org/Graphics/SVG/1.1/DTD/svg11.dtd">
<svg width="100%" height="100%" viewBox="0 0 32 32" version="1.1" xmlns="http://www.w3.org/2000/svg"
    style="fill-rule:evenodd;clip-rule:evenodd;stroke-linejoin:round;stroke-miterlimit:2;">
    <g transform="matrix(0.0793177,0,0,0.0791355,-4.32811,-3.19036)">
        <path
            d="M374,52C376.889,52.754 380.163,53.652 382,56C385,59.833 390.167,70.667 392,75C392.918,77.171 393.842,79.799 393,82C387.833,95.5 375.167,135.5 361,156C347.321,175.794 320.167,191.333 308,205C299.447,214.607 287.667,226.667 288,238C288.333,249.333 301.167,262.833 310,273C318.833,283.167 331.703,289.23 341,299C350.833,309.333 361.986,321.512 369,335C377.667,351.667 389,387.167 393,399C393.747,401.21 393.785,403.803 393,406C391.333,410.667 386.5,422.5 383,427C380.436,430.297 374.766,432.633 372,433L140.575,433C137.809,432.633 132.139,430.297 129.575,427C126.075,422.5 121.241,410.667 119.575,406C118.79,403.803 118.827,401.21 119.575,399C123.575,387.167 134.908,351.667 143.575,335C150.588,321.512 161.741,309.333 171.575,299C180.872,289.23 193.741,283.167 202.575,273C211.408,262.833 224.241,249.333 224.575,238C224.908,226.667 213.127,214.607 204.575,205C192.408,191.333 165.253,175.794 151.575,156C137.408,135.5 124.741,95.5 119.575,82C118.732,79.799 119.656,77.171 120.575,75C122.408,70.667 127.575,59.833 130.575,56C132.412,53.652 135.685,52.754 138.575,52L374,52Z"
            fill="#ffffff" />
    </g>
</svg>